<?xml version="1.0" encoding="UTF-8"?>
<!DOCTYPE svg PUBLIC "-//W3C//DTD SVG 1.1//EN" "http://www.w3.org/Graphics/SVG/1.1/DTD/svg11.dtd">
<!-- Creator: CorelDRAW -->
<svg xmlns="http://www.w3.org/2000/svg" xml:space="preserve" width="54.8448mm" height="54.8448mm" version="1.1" style="shape-rendering:geometricPrecision; text-rendering:geometricPrecision; image-rendering:optimizeQuality; fill-rule:evenodd; clip-rule:evenodd"
viewBox="0 0 1134.57 1134.57"
 xmlns:xlink="http://www.w3.org/1999/xlink"
 xmlns:xodm="http://www.corel.com/coreldraw/odm/2003">
 <defs>
  <style type="text/css">
   <![CDATA[
    .str0 {stroke:#373435;stroke-width:4.14;stroke-miterlimit:22.9256}
    .fil0 {fill:black}
    .fil1 {fill:white}
   ]]>
  </style>
 </defs>
 <g id="Camada_x0020_1">
  <metadata id="CorelCorpID_0Corel-Layer"/>
  <circle class="fil0 str0" cx="567.28" cy="567.28" r="565.21"/>
  <path class="fil1 str0" d="M567.28 256.98l0 0c18.85,0 34.28,15.42 34.28,34.28l0 241.75 241.75 0c18.85,0 34.28,15.42 34.28,34.28l0 0c0,18.85 -15.42,34.28 -34.28,34.28l-241.75 0 0 241.75c0,18.85 -15.42,34.28 -34.28,34.28l-0 0c-18.85,0 -34.28,-15.42 -34.28,-34.28l0 -241.75 -241.75 0c-18.85,0 -34.28,-15.42 -34.28,-34.28l0 -0c0,-18.85 15.42,-34.28 34.28,-34.28l241.75 0 0 -241.75c0,-18.85 15.42,-34.28 34.28,-34.28z"/>
 </g>
</svg>
