<?xml version="1.0" encoding="UTF-8"?>
<!DOCTYPE svg PUBLIC "-//W3C//DTD SVG 1.1//EN" "http://www.w3.org/Graphics/SVG/1.1/DTD/svg11.dtd">
<!-- Creator: CorelDRAW -->
<svg xmlns="http://www.w3.org/2000/svg" xml:space="preserve" width="54.84mm" height="54.84mm" version="1.1" style="shape-rendering:geometricPrecision; text-rendering:geometricPrecision; image-rendering:optimizeQuality; fill-rule:evenodd; clip-rule:evenodd"
viewBox="0 0 797.37 797.37"
 xmlns:xlink="http://www.w3.org/1999/xlink"
 xmlns:xodm="http://www.corel.com/coreldraw/odm/2003">
 <defs>
  <style type="text/css">
   <![CDATA[
    .str0 {stroke:#373435;stroke-width:2.91;stroke-miterlimit:22.9256}
    .fil0 {fill:black}
    .fil1 {fill:white}
   ]]>
  </style>
 </defs>
 <g id="Camada_x0020_1">
  <metadata id="CorelCorpID_0Corel-Layer"/>
  <circle class="fil0 str0" cx="398.69" cy="398.69" r="397.23"/>
  <g id="_2625689667168">
   <path class="fil1" d="M209.49 180.59l313.68 50.37 1.32 284.42 -12.84 -12.36 0.56 -259.46 -290.21 -48.87 -0.59 384.32 254.65 -39.93c4.24,4.28 8.52,8.58 12.8,12.88l-281.52 45.78 2.15 -417.15z"/>
   <path class="fil1" d="M378.88 301.37c58.2,0 105.38,47.18 105.38,105.38 0,21.4 -6.38,41.31 -17.34,57.93l24.93 26.83c2.77,0.15 5.54,0.29 8.31,0.44 26.85,25.84 53.69,51.68 80.54,77.52 11,10.58 12.8,24.93 2.71,37.14 -10.46,12.65 -27.76,13.81 -39.15,1.8 -24.18,-25.54 -53.37,-54.18 -79.98,-81.27 0.19,-2.2 0.38,-4.4 0.57,-6.59l-27.38 -26.18c-16.75,11.22 -36.9,17.77 -58.58,17.77 -58.2,0 -105.38,-47.18 -105.38,-105.38 0,-58.2 47.18,-105.38 105.38,-105.38zm132.5 216.26c1.55,-1.61 4.14,-1.66 5.75,-0.1l65.84 63.58c1.61,1.55 1.65,4.14 0.1,5.75 -1.55,1.61 -4.14,1.66 -5.75,0.1l-65.84 -63.57c-1.61,-1.55 -1.66,-4.14 -0.1,-5.75zm-132.5 -200.53c49.51,0 89.65,40.14 89.65,89.65 0,49.51 -40.14,89.65 -89.65,89.65 -49.51,0 -89.65,-40.14 -89.65,-89.65 0,-49.51 40.14,-89.65 89.65,-89.65z"/>
  </g>
 </g>
</svg>
